<?xml version="1.0" standalone="yes"?>

<svg version="1.1" viewBox="0.0 0.0 400.1968503937008 100.0" fill="none" stroke="none" stroke-linecap="square" stroke-miterlimit="10" xmlns="http://www.w3.org/2000/svg" xmlns:xlink="http://www.w3.org/1999/xlink"><clipPath id="p.0"><path d="m0 0l400.19684 0l0 100.0l-400.19684 0l0 -100.0z" clip-rule="nonzero"></path></clipPath><g clip-path="url(#p.0)"><path fill="#000000" fill-opacity="0.0" d="m0 0l400.19684 0l0 100.0l-400.19684 0z" fill-rule="evenodd"></path><path fill="#000000" fill-opacity="0.0" d="m-9.923884 -7.810752l460.34647 0l0 71.244095l-460.34647 0z" fill-rule="evenodd"></path><path fill="#f3f3f3" d="m21.62299 77.98924l-22.1875 -57.265625l8.203125 0l14.874999 41.59375q1.796875 5.0 3.015625 9.375q1.328125 -4.6875 3.078125 -9.375l15.46875 -41.59375l7.734375 0l-22.421875 57.265625l-7.765625 0zm64.484375 -13.359375l7.265625 0.890625q-1.71875 6.375 -6.375 9.890625q-4.640625 3.515625 -11.859375 3.515625q-9.109375 0 -14.437504 -5.609375q-5.328125 -5.609375 -5.328125 -15.71875q0 -10.46875 5.390625 -16.25q5.390629 -5.78125 13.984379 -5.78125q8.3125 0 13.578125 5.671875q5.28125 5.65625 5.28125 15.921875q0 0.625 -0.03125 1.875l-30.937504 0q0.390625 6.84375 3.8593788 10.484375q3.484375 3.625 8.671875 3.625q3.875 0 6.609375 -2.03125q2.734375 -2.03125 4.328125 -6.484375zm-23.078129 -11.375l23.156254 0q-0.46875 -5.234375 -2.65625 -7.84375q-3.359375 -4.0625 -8.703125 -4.0625q-4.84375 0 -8.15625 3.25q-3.2968788 3.234375 -3.6406288 8.65625zm39.101566 24.734375l0 -41.484375l6.328125 0l0 6.28125q2.421875 -4.40625 4.46875 -5.8125q2.046875 -1.40625 4.515625 -1.40625q3.546875 0 7.21875 2.265625l-2.421875 6.515625q-2.578125 -1.515625 -5.15625 -1.515625q-2.296875 0 -4.140625 1.390625q-1.828125 1.375 -2.609375 3.84375q-1.171875 3.75 -1.171875 8.203125l0 21.71875l-7.03125 0zm26.749992 -49.1875l0 -8.078125l7.03125 0l0 8.078125l-7.03125 0zm0 49.1875l0 -41.484375l7.03125 0l0 41.484375l-7.03125 0zm19.414062 0l0 -36.015625l-6.203125 0l0 -5.46875l6.203125 0l0 -4.421875q0 -4.171875 0.75 -6.203125q1.015625 -2.734375 3.5625 -4.4375q2.5625 -1.703125 7.171875 -1.703125q2.96875 0 6.5625 0.703125l-1.046875 6.140625q-2.1875 -0.390625 -4.140625 -0.390625q-3.203125 0 -4.53125 1.375q-1.328125 1.359375 -1.328125 5.109375l0 3.828125l8.078125 0l0 5.46875l-8.078125 0l0 36.015625l-7.0 0zm20.242188 15.984375l-0.78125 -6.609375q2.296875 0.625 4.015625 0.625q2.34375 0 3.75 -0.78125q1.40625 -0.78125 2.3125 -2.1875q0.65625 -1.046875 2.140625 -5.234375q0.203125 -0.578125 0.625 -1.71875l-15.734375 -41.5625l7.578125 0l8.625 24.015625q1.6875 4.578125 3.015625 9.609375q1.203125 -4.84375 2.890625 -9.453125l8.859375 -24.171875l7.03125 0l-15.78125 42.1875q-2.53125 6.84375 -3.9375 9.421875q-1.875 3.46875 -4.296875 5.09375q-2.421875 1.625 -5.78125 1.625q-2.03125 0 -4.53125 -0.859375zm41.59375 -15.984375l0 -57.265625l38.640625 0l0 6.75l-31.0625 0l0 17.734375l26.875 0l0 6.765625l-26.875 0l0 26.015625l-7.578125 0zm47.507812 0l0 -41.484375l6.328125 0l0 6.28125q2.421875 -4.40625 4.46875 -5.8125q2.046875 -1.40625 4.515625 -1.40625q3.546875 0 7.21875 2.265625l-2.421875 6.515625q-2.578125 -1.515625 -5.15625 -1.515625q-2.296875 0 -4.140625 1.390625q-1.828125 1.375 -2.609375 3.84375q-1.171875 3.75 -1.171875 8.203125l0 21.71875l-7.03125 0zm55.109375 -13.359375l7.265625 0.890625q-1.71875 6.375 -6.375 9.890625q-4.640625 3.515625 -11.859375 3.515625q-9.109375 0 -14.4375 -5.609375q-5.328125 -5.609375 -5.328125 -15.71875q0 -10.46875 5.390625 -16.25q5.390625 -5.78125 13.984375 -5.78125q8.3125 0 13.578125 5.671875q5.28125 5.65625 5.28125 15.921875q0 0.625 -0.03125 1.875l-30.9375 0q0.390625 6.84375 3.859375 10.484375q3.484375 3.625 8.671875 3.625q3.875 0 6.609375 -2.03125q2.734375 -2.03125 4.328125 -6.484375zm-23.078125 -11.375l23.15625 0q-0.46875 -5.234375 -2.65625 -7.84375q-3.359375 -4.0625 -8.703125 -4.0625q-4.84375 0 -8.15625 3.25q-3.296875 3.234375 -3.640625 8.65625zm36.367188 12.34375l6.953125 -1.09375q0.578125 4.1875 3.25 6.421875q2.6875 2.21875 7.484375 2.21875q4.84375 0 7.1875 -1.96875q2.34375 -1.984375 2.34375 -4.640625q0 -2.375 -2.0625 -3.75q-1.453125 -0.9375 -7.1875 -2.375q-7.734375 -1.953125 -10.734375 -3.375q-2.984375 -1.4375 -4.53125 -3.953125q-1.53125 -2.515625 -1.53125 -5.5625q0 -2.78125 1.265625 -5.140625q1.265625 -2.359375 3.453125 -3.921875q1.640625 -1.21875 4.46875 -2.046875q2.84375 -0.84375 6.078125 -0.84375q4.890625 0 8.578125 1.40625q3.6875 1.40625 5.4375 3.8125q1.765625 2.390625 2.4375 6.421875l-6.875 0.9375q-0.46875 -3.203125 -2.71875 -5.0q-2.25 -1.796875 -6.34375 -1.796875q-4.84375 0 -6.921875 1.609375q-2.0625 1.59375 -2.0625 3.734375q0 1.375 0.859375 2.46875q0.859375 1.125 2.6875 1.875q1.0625 0.390625 6.21875 1.796875q7.453125 1.984375 10.40625 3.265625q2.953125 1.265625 4.625 3.6875q1.6875 2.421875 1.6875 6.015625q0 3.515625 -2.0625 6.625q-2.046875 3.09375 -5.921875 4.796875q-3.859375 1.703125 -8.734375 1.703125q-8.09375 0 -12.328125 -3.359375q-4.234375 -3.359375 -5.40625 -9.96875zm42.8125 12.390625l0 -57.265625l7.03125 0l0 20.546875q4.921875 -5.703125 12.421875 -5.703125q4.609375 0 8.0 1.8125q3.40625 1.8125 4.859375 5.015625q1.46875 3.203125 1.46875 9.296875l0 26.296875l-7.03125 0l0 -26.296875q0 -5.265625 -2.28125 -7.671875q-2.28125 -2.40625 -6.46875 -2.40625q-3.125 0 -5.875 1.625q-2.75 1.625 -3.921875 4.40625q-1.171875 2.765625 -1.171875 7.640625l0 22.703125l-7.03125 0z" fill-rule="nonzero"></path></g></svg>

